<svg id="Layer_1" data-name="Layer 1" xmlns="http://www.w3.org/2000/svg" viewBox="0 0 85.04 85.04"><defs><style>.cls-1{fill:none;stroke:#ff4438;stroke-linejoin:round;stroke-width:2px;}</style></defs><title>bucket_svg_iconos2</title><path class="cls-1" d="M68.16,26.94a41.16,41.16,0,0,0-.65-6.52c-.15-.79-.32-1.58-.51-2.36a40,40,0,0,0-9.74-1.2c-.54,0-1.07,0-1.61,0a39.92,39.92,0,0,0-8.87,1.34A40.45,40.45,0,0,0,18,67a39.34,39.34,0,0,0,4.77.88,40.36,40.36,0,0,0,45.34-38.4c0-.56,0-1.13,0-1.7C68.18,27.49,68.16,27.22,68.16,26.94Z"/><line class="cls-1" x1="19.32" y1="57.41" x2="27.62" y2="65.71"/><line class="cls-1" x1="20.48" y1="48.64" x2="36.39" y2="64.55"/><line class="cls-1" x1="65.69" y1="27.65" x2="57.38" y2="19.35"/><line class="cls-1" x1="64.52" y1="36.42" x2="48.61" y2="20.51"/><line class="cls-1" x1="31.89" y1="53.14" x2="53.22" y2="31.81"/><line class="cls-1" x1="31.31" y1="47.09" x2="37.66" y2="53.44"/><line class="cls-1" x1="31.49" y1="47.27" x2="37.84" y2="53.62"/><line class="cls-1" x1="36.75" y1="42.02" x2="43.1" y2="48.37"/><line class="cls-1" x1="42" y1="36.76" x2="48.35" y2="43.11"/><line class="cls-1" x1="47.25" y1="31.51" x2="53.6" y2="37.86"/></svg>