<svg id="Layer_1" data-name="Layer 1" xmlns="http://www.w3.org/2000/svg" viewBox="0 0 85.04 85.04"><defs><style>.cls-1{fill:none;stroke:#28377a;stroke-linecap:round;stroke-linejoin:round;stroke-width:2px;}</style></defs><title>bucket_svg_iconos2</title><path class="cls-1" d="M35.18,34.09a11.09,11.09,0,0,1-2.78-7A10.07,10.07,0,1,1,42.47,37.21a9.21,9.21,0,0,1-4.41-1"/><path class="cls-1" d="M29.71,60.6A10.07,10.07,0,1,1,30,57"/><path class="cls-1" d="M57.71,51A9.5,9.5,0,0,0,55,57.9a10.05,10.05,0,1,0,5.62-9"/><line class="cls-1" x1="35.18" y1="34.09" x2="24.56" y2="48.92"/><line class="cls-1" x1="44.42" y1="27.32" x2="27.41" y2="51.07"/><line class="cls-1" x1="35.18" y1="34.09" x2="24.56" y2="48.92"/><line class="cls-1" x1="44.42" y1="27.32" x2="27.41" y2="51.07"/><line class="cls-1" x1="49.99" y1="34.09" x2="67.05" y2="57.9"/><line class="cls-1" x1="47.05" y1="36.11" x2="57.71" y2="50.99"/><line class="cls-1" x1="55" y1="57.03" x2="30.04" y2="57.02"/><line class="cls-1" x1="55.33" y1="60.6" x2="20" y2="60.59"/></svg>