<svg id="Layer_1" data-name="Layer 1" xmlns="http://www.w3.org/2000/svg" viewBox="0 0 85.04 85.04"><defs><style>.cls-1{fill:none;stroke:#fbab18;stroke-linejoin:round;stroke-width:2px;}</style></defs><title>bucket_svg_iconos2</title><path class="cls-1" d="M47.09,14.08l6.14,12.43a5.09,5.09,0,0,0,3.83,2.79l13.72,2A5.1,5.1,0,0,1,73.61,40l-9.93,9.68a5.11,5.11,0,0,0-1.47,4.51l2.35,13.67a5.1,5.1,0,0,1-7.4,5.37L44.89,66.75a5.09,5.09,0,0,0-4.74,0L27.88,73.21a5.1,5.1,0,0,1-7.4-5.37l2.35-13.67a5.11,5.11,0,0,0-1.47-4.51L11.43,40a5.1,5.1,0,0,1,2.83-8.69L28,29.3a5.09,5.09,0,0,0,3.83-2.79L38,14.08A5.09,5.09,0,0,1,47.09,14.08Z"/></svg>