<svg id="Layer_1" data-name="Layer 1" xmlns="http://www.w3.org/2000/svg" viewBox="0 0 91.64 109.26">
    <defs>
        <style>.cls-1{fill:#ffffff;}</style>
    </defs>
    <title>bucket_logo</title>
    <path class="cls-1"
          d="M21.33,105.64a1.39,1.39,0,0,1-.32,1,1.23,1.23,0,0,1-.86.26,1.25,1.25,0,0,1-.88-.26,1.4,1.4,0,0,1-.3-1V94.38H16.66v11.26a3.65,3.65,0,0,0,1.05,2.76,3.46,3.46,0,0,0,2.44.86,3.56,3.56,0,0,0,2.44-.86,3.75,3.75,0,0,0,1.05-2.76V94.38H21.33Z"/>
    <path class="cls-1"
          d="M36.92,94.21a3.55,3.55,0,0,0-2.44.86,3.73,3.73,0,0,0-1,2.76v7.81a3.73,3.73,0,0,0,1,2.76,3.55,3.55,0,0,0,2.44.86,3.46,3.46,0,0,0,2.44-.86,3.65,3.65,0,0,0,1-2.76v-1.89H38.09v1.89a1.4,1.4,0,0,1-.29,1,1.27,1.27,0,0,1-.88.26,1.23,1.23,0,0,1-.86-.26,1.39,1.39,0,0,1-.32-1V97.83a1.39,1.39,0,0,1,.32-1,1.23,1.23,0,0,1,.86-.26,1.27,1.27,0,0,1,.88.26,1.4,1.4,0,0,1,.29,1v1.3h2.32v-1.3a3.65,3.65,0,0,0-1-2.76,3.46,3.46,0,0,0-2.44-.86"/>
    <polygon class="cls-1"
             points="55.09 94.38 52.53 100.35 52.53 94.38 50.22 94.38 50.22 109.09 52.53 109.09 52.53 106.21 53.33 104.38 55.12 109.09 57.59 109.09 54.63 101.36 57.59 94.38 55.09 94.38"/>
    <polygon class="cls-1"
             points="67.11 109.09 73.21 109.09 73.21 106.78 69.42 106.78 69.42 102.7 72.03 102.7 72.03 100.39 69.42 100.39 69.42 96.69 73.21 96.69 73.21 94.38 67.11 94.38 67.11 109.09"/>
    <polygon class="cls-1"
             points="82.41 94.38 82.41 96.69 84.76 96.69 84.76 109.09 87.07 109.09 87.07 96.69 89.43 96.69 89.43 94.38 82.41 94.38"/>
    <path class="cls-1"
          d="M5.82,101.57a3,3,0,0,0,.84-2.27V97.93a4.09,4.09,0,0,0-.27-1.55,2.85,2.85,0,0,0-.8-1.18,3.5,3.5,0,0,0-2.42-.82H0v14.71H3.49a3.42,3.42,0,0,0,2.41-.82,2.73,2.73,0,0,0,.8-1.18A3.87,3.87,0,0,0,7,105.56v-1.35a3,3,0,0,0-1.16-2.64M2.31,96.69h.86a1.36,1.36,0,0,1,.89.23,1.43,1.43,0,0,1,.29,1V99.3a1.45,1.45,0,0,1-.32,1,1.21,1.21,0,0,1-.86.25H2.31Zm2.36,8.87a1.32,1.32,0,0,1-.3,1,1.33,1.33,0,0,1-.88.23H2.31v-3.87H3.49a1.28,1.28,0,0,1,.86.25,1.42,1.42,0,0,1,.32,1Z"/>
    <path class="cls-1"
          d="M90.6,47c-.19-.51-.39-1-.61-1.44a15.4,15.4,0,0,0-1.77-2.84,18.33,18.33,0,0,0-4.66-4.17c.38-.28.74-.58,1.1-.9l.64-.58a18.5,18.5,0,0,0,3-3.77,22.32,22.32,0,0,0,3-11.72,23.1,23.1,0,0,0-2.29-10.53,18.25,18.25,0,0,0-3.64-5C79.05,0,70.14,0,69.06,0H15.63L3.46,79.67H61.54c7.45,0,20.21-3.07,26.53-13.9a27,27,0,0,0,3.07-8.06A19.16,19.16,0,0,0,90.6,47Zm-8.13,8.89a17.68,17.68,0,0,1-2.42,6c-.21.33-.44.66-.67,1C73.32,71,61.67,70.81,61.07,70.82H13.77l3.38-22.13L23.24,8.85h46c.07,0,6.11-.08,9.9,3.59a9.25,9.25,0,0,1,1.2,1.45,8.31,8.31,0,0,1,.58.95,14.12,14.12,0,0,1,1.46,6.74,17.1,17.1,0,0,1-.45,4.08A10.36,10.36,0,0,1,80,29.74a8,8,0,0,1-.82.93h0c-.29.28-.59.53-.89.77l-.29.21-.71.47a2.61,2.61,0,0,1-.28.17,10.15,10.15,0,0,1-1,.51l-.09,0c-.31.14-.62.27-.92.38l-.3.11-.76.24-.23.07a15.7,15.7,0,0,1-1.88.41l-.1,0c-.28.05-.55.08-.79.11a22.06,22.06,0,0,0-2.87-6.74l0,0a22.51,22.51,0,0,0-3.41-4.12l-.09-.09c-.42-.39-.85-.76-1.29-1.12L63.16,22a22.92,22.92,0,0,0-2.85-1.92L60.15,20c-.48-.26-1-.51-1.46-.74l-.24-.11c-.51-.22-1-.43-1.53-.62l-.17-.06c-.51-.18-1-.34-1.55-.48l-.15,0c-.54-.14-1.08-.26-1.63-.36l-.3,0c-.55-.1-1.09-.17-1.64-.22l-.29,0c-.58-.05-1.17-.08-1.76-.08a22.05,22.05,0,0,0-12.85,4.13c-.41.3-.82.61-1.22.93s-.94.82-1.39,1.26l-.18.17A22.12,22.12,0,0,0,49.43,61.47h0c.62,0,1.23,0,1.84-.08l.24,0c.58-.06,1.15-.13,1.71-.23l.31-.06c.56-.1,1.11-.23,1.65-.37l.25-.08c.57-.15,1.12-.33,1.66-.53l.08,0c.56-.21,1.1-.44,1.64-.69l.09-.05c.53-.25,1.05-.52,1.55-.82l.17-.09c.5-.3,1-.61,1.46-.94l.14-.1c.48-.35,1-.71,1.41-1.09l0,0a22,22,0,0,0,2.65-2.64h0c.41-.48.79-1,1.15-1.48l0,0a21.88,21.88,0,0,0,3.7-8.73h0l1.17.21.11,0,1.16.27.13,0c.41.11.83.24,1.25.38l.23.07c.38.13.77.27,1.15.43l.15.06c.4.17.8.35,1.2.55l.25.14c.37.2.73.41,1.08.64l.08,0a9.9,9.9,0,0,1,1,.79l.21.19a8.48,8.48,0,0,1,.87.93,7.71,7.71,0,0,1,.52.75,7.54,7.54,0,0,1,1,3.08,11.79,11.79,0,0,1,0,2.14A14.54,14.54,0,0,1,82.47,55.89ZM62.71,39.34A13.26,13.26,0,1,1,54.6,27.11,13.3,13.3,0,0,1,62.71,39.34Z"/>
</svg>
