<svg id="Layer_1" data-name="Layer 1" xmlns="http://www.w3.org/2000/svg" viewBox="0 0 74.23 57.34"><defs><style>.cls-1{fill:none;stroke:#fbab18;stroke-linejoin:round;stroke-width:2px;}</style></defs><title>bucket_svg_iconos</title><path class="cls-1" d="M67,26.3H60.88a1,1,0,0,0-1,1v28.1a1,1,0,0,1-1,1H15.22a1,1,0,0,1-1-1V27.27a1,1,0,0,0-1-1h-6a1,1,0,0,1-.59-1.73L36.86,1.2a1,1,0,0,1,1.19,0L67.59,24.57A1,1,0,0,1,67,26.3Z"/><path class="cls-1" d="M43.68,51.46V39.26a1,1,0,0,0-1-1H31.47a1,1,0,0,0-1,1v12.2"/></svg>